<svg xmlns="http://www.w3.org/2000/svg" width="51" height="41" viewBox="0 0 51 41">
  <path id="Icon_awesome-shipping-fast" data-name="Icon awesome-shipping-fast" d="M48.75,27.5H47.5V19.055a3.75,3.75,0,0,0-1.1-2.648l-7.8-7.8a3.75,3.75,0,0,0-2.648-1.1H32.5V3.75A3.751,3.751,0,0,0,28.75,0h-20A3.751,3.751,0,0,0,5,3.75V7.5H.625A.627.627,0,0,0,0,8.125v1.25A.627.627,0,0,0,.625,10h21.25a.627.627,0,0,1,.625.625v1.25a.627.627,0,0,1-.625.625H3.125a.627.627,0,0,0-.625.625v1.25A.627.627,0,0,0,3.125,15h16.25a.627.627,0,0,1,.625.625v1.25a.627.627,0,0,1-.625.625H.625A.627.627,0,0,0,0,18.125v1.25A.627.627,0,0,0,.625,20h16.25a.627.627,0,0,1,.625.625v1.25a.627.627,0,0,1-.625.625H5v10a7.5,7.5,0,0,0,15,0H30a7.5,7.5,0,0,0,15,0h3.75A1.254,1.254,0,0,0,50,31.25v-2.5A1.254,1.254,0,0,0,48.75,27.5ZM12.5,36.25a3.75,3.75,0,1,1,3.75-3.75A3.751,3.751,0,0,1,12.5,36.25Zm25,0a3.75,3.75,0,1,1,3.75-3.75A3.751,3.751,0,0,1,37.5,36.25ZM43.75,20H32.5V11.25h3.445l7.8,7.8Z" transform="translate(0.5 0.5)" fill="none" stroke="#000" stroke-width="1"/>
</svg>
